<svg xmlns="http://www.w3.org/2000/svg" width="256" height="256" viewBox="0 0 100 100"><rect width="100" height="100" rx="20" fill="#939393"></rect><path fill="#fff" d="M28.86 65.82L28.86 34.03Q28.86 29.88 28.76 26.78Q28.66 23.68 28.47 21.41Q28.27 19.14 28.00 17.63Q27.73 16.11 27.44 15.09L27.44 15.09L27.44 14.89Q28.42 14.94 29.49 14.94L29.49 14.94Q30.42 14.99 31.57 14.99Q32.71 14.99 33.94 14.99L33.94 14.99Q35.69 14.99 38.70 14.65Q41.70 14.31 46.44 14.31L46.44 14.31Q50.83 14.31 54.54 15.45Q58.25 16.60 60.96 18.75Q63.67 20.90 65.21 24.05Q66.75 27.20 66.75 31.20L66.75 31.20Q66.75 34.57 65.82 37.23Q64.89 39.89 63.21 41.87Q61.52 43.85 59.16 45.19Q56.79 46.53 53.96 47.31L53.96 47.31Q58.11 47.95 61.52 49.44Q64.94 50.93 67.41 53.17Q69.87 55.42 71.22 58.42Q72.56 61.43 72.56 65.09L72.56 65.09Q72.56 75.39 65.77 80.54Q58.98 85.69 45.46 85.69L45.46 85.69Q43.99 85.69 42.04 85.57Q40.09 85.45 38.06 85.30Q36.04 85.16 34.08 85.03Q32.13 84.91 30.66 84.91L30.66 84.91L27.44 84.91L27.44 84.72Q27.73 83.69 28.00 82.18Q28.27 80.66 28.47 78.42Q28.66 76.17 28.76 73.07Q28.86 69.97 28.86 65.82L28.86 65.82ZM46.78 50.29L46.78 50.29Q43.46 50.29 41.21 50.54Q38.96 50.78 37.74 51.03L37.74 51.03L37.74 65.82Q37.74 71.53 37.94 75.24Q38.13 78.96 38.48 81.30L38.48 81.30Q40.33 81.54 42.19 81.74Q44.04 81.93 45.17 81.93L45.17 81.93Q54.30 81.93 58.52 77.86Q62.74 73.78 62.74 65.33L62.74 65.33Q62.74 62.01 61.74 59.25Q60.74 56.49 58.76 54.49Q56.79 52.49 53.78 51.39Q50.78 50.29 46.78 50.29ZM37.74 18.60L37.74 46.63Q39.11 46.78 40.19 46.80Q41.26 46.83 42.48 46.83L42.48 46.83Q45.80 46.83 48.54 45.87Q51.27 44.92 53.20 43.02Q55.13 41.11 56.20 38.26Q57.28 35.40 57.28 31.59L57.28 31.59Q57.28 28.42 56.49 25.83Q55.71 23.24 54.17 21.41Q52.64 19.58 50.39 18.60Q48.14 17.63 45.26 17.63L45.26 17.63Q43.41 17.63 42.02 17.77Q40.63 17.92 39.65 18.12L39.65 18.12Q38.53 18.31 37.74 18.60L37.74 18.60Z"></path></svg>