<?xml version="1.0" encoding="utf-8"?>
<!-- Generator: Adobe Illustrator 26.3.1, SVG Export Plug-In . SVG Version: 6.00 Build 0)  -->
<svg version="1.1" id="Layer_1" xmlns="http://www.w3.org/2000/svg" xmlns:xlink="http://www.w3.org/1999/xlink" x="0px" y="0px"
	 viewBox="0 0 305.5 178" style="enable-background:new 0 0 305.5 178;" xml:space="preserve">
<style type="text/css">
	.st0{fill:#4D4D4D;}
</style>
<g>
	<path d="M48.4,177.8c-2.4-1.1-4.8-2.3-7.1-3.4c0-56.8,0.1-113.6,0.1-170.4h7.1V177.8z"/>
</g>
<g>
	<path d="M48.4,177.8c2-1.1,3.9-2.3,5.9-3.4c0-56.8,0-113.6-0.1-170.4h-5.8V177.8z"/>
</g>
<path d="M47.7-1.5"/>
<path d="M99.5-0.7"/>
<path d="M95.3,1.2"/>
<rect x="47.7" y="17.2" width="47.1" height="5.8"/>
<rect x="47.7" y="53.4" width="47.1" height="5.8"/>
<g>
	<path d="M256.2,110.3c-1-0.7-2.1-1.4-3.1-2.1c0-34,0-68.1,0-102.1h3.1V110.3z"/>
</g>
<g>
	<path d="M256.2,110.3c0.8-0.7,1.7-1.4,2.5-2.1c0-34,0-68.1,0-102.1h-2.5V110.3z"/>
</g>
<path d="M256.5-1.4"/>
<path d="M255.9,1.8"/>
<g>
	<path d="M276.7,112.4c-1-0.7-2.1-1.4-3.1-2.1c0-34,0-68.1,0-102.1h3.1V112.4z"/>
</g>
<g>
	<path d="M276.7,112.4c0.8-0.7,1.7-1.4,2.5-2.1c0-34,0-68.1,0-102.1h-2.5V112.4z"/>
</g>
<path d="M278.3,2.4"/>
<path d="M276.4,3.9"/>
<rect x="255.9" y="16.6" width="20.3" height="4.6"/>
<rect x="255.9" y="45.3" width="20.3" height="4.6"/>
<path d="M0.1,110.5c-0.1,1.3-0.2,2.6-0.4,3.9c0.1,2,0.1,4,0,5.9c0.1,1.1,0.2,2.2,0.3,3.3h19.2v-13.1H0.1z"/>
<polygon points="15,123.6 305.5,86.4 305.5,79.1 15,110.5 "/>
<path class="st0" d="M0.2,107c0,1.2-0.1,2.3-0.1,3.5H15l290.5-31.4L0.2,107z"/>
<path d="M-0.2,57.3c0,0,0,0.1,0,0.1c0,0.1,0,0.1,0,0.2c0,0.1,0,0.1,0,0.2c0,0.2,0,0.5,0.1,0.7c32.4-17.2,49.4-48.3,49.3-48.4
	C49,10,31.5,40.3-0.2,57.3z"/>
<path d="M-0.2,72.6c0,0.4,0,0.9,0,1.3C62.3,56.5,95.2,12.1,95,12C94.8,11.8,60.8,55.3-0.2,72.6z"/>
<path d="M299.7,51.6c2,0.4,3.9,0.6,5.8,0.8V53c-1.9-0.1-3.9-0.4-5.8-0.8c-29.5-5.5-45.1-34.3-45-34.3
	C254.8,17.8,271,46.2,299.7,51.6z"/>
<path d="M301.8,50.7c1.3,0.9,2.6,1.7,3.9,2.5l-0.2,0.3c-1.3-0.8-2.6-1.6-3.9-2.5c-19.3-13.6-22.3-34.9-22.2-34.9
	C279.4,16.1,283,37.4,301.8,50.7z"/>
<polygon points="41.2,4 48.4,0 54.2,4 "/>
<polygon points="273.7,8.3 276.4,6.4 279.2,8.3 "/>
<polygon points="253.1,6.1 256.2,4.4 258.7,6.1 "/>
<g>
	<g>
		<path d="M104.3,29.1c0-1.4,0-2.7,0-3.8c0-1.1-0.1-2-0.1-2.8c-0.1-0.8-0.1-1.5-0.2-2.1c-0.1-0.6-0.1-1.1-0.2-1.5c0,0,0-0.1,0-0.1
			c0.3,0.2,0.5,0.4,0.8,0.6c0.2,0.2,0.5,0.4,0.8,0.6c0.3,0.2,0.6,0.4,0.9,0.7c0.5,0.3,1.1,0.7,1.9,1.1c0.8,0.4,1.8,1,3.1,1.8
			c1.2,0.7,2.3,1.6,3.3,2.6c1,1,1.9,2,2.7,3.2c0.7,1.1,1.3,2.3,1.8,3.6c0.4,1.3,0.6,2.6,0.6,3.9c0,1.1-0.1,2.1-0.4,2.8
			c-0.3,0.8-0.6,1.4-1.1,1.8c-0.5,0.4-1,0.7-1.7,0.8c-0.7,0.1-1.4,0.1-2.1-0.1c1.1,0.9,2.2,1.8,3.1,2.8c0.9,1,1.8,2,2.5,3.1
			c0.7,1.1,1.2,2.2,1.6,3.4c0.4,1.2,0.6,2.4,0.6,3.6c0,3.4-1,5.6-2.9,6.4c-1.9,0.8-4.7,0.3-8.4-1.8c-0.4-0.2-0.9-0.5-1.4-0.9
			c-0.5-0.4-1.1-0.7-1.6-1.1c-0.5-0.4-1.1-0.8-1.6-1.1c-0.5-0.4-1-0.7-1.4-0.9c-0.4-0.3-0.8-0.6-1.3-0.8c0,0,0-0.1,0-0.1
			c0.1-0.3,0.1-0.7,0.2-1.2c0.1-0.5,0.1-1.1,0.2-1.8c0.1-0.7,0.1-1.6,0.1-2.7c0-1,0-2.3,0-3.7C104.3,40,104.3,34.6,104.3,29.1z
			 M107.8,38c0.4,0.3,0.7,0.5,1,0.7c0.3,0.2,0.6,0.4,0.9,0.6c0.9,0.6,1.7,0.9,2.5,1c0.7,0.1,1.4,0,1.9-0.3c0.5-0.3,0.9-0.9,1.2-1.7
			c0.3-0.8,0.4-1.8,0.4-3.1c0-1.1-0.1-2.1-0.3-3.1c-0.2-1-0.5-1.9-1-2.8c-0.4-0.9-0.9-1.6-1.5-2.3c-0.6-0.7-1.3-1.3-2.1-1.8
			c-0.5-0.3-0.9-0.6-1.3-0.8c-0.4-0.2-0.7-0.3-1-0.4c-0.3-0.1-0.6-0.2-0.8-0.3C107.8,28.4,107.8,33.2,107.8,38z M111.4,42.1
			c-0.9-0.5-1.6-1-2.2-1.3c-0.6-0.3-1.1-0.5-1.4-0.6c0,2.5,0,5,0,7.6c0,1.9,0,3.6,0.1,4.9c0.1,1.3,0.1,2.4,0.2,3.2
			c0.5,0.4,1,0.8,1.5,1.1c0.5,0.4,0.9,0.6,1.2,0.8c2.5,1.4,4.3,1.7,5.5,1c1.2-0.8,1.8-2.6,1.8-5.4c0-1.1-0.1-2.2-0.4-3.3
			c-0.3-1.1-0.7-2.1-1.2-3.1c-0.5-1-1.2-1.9-2.1-2.7C113.5,43.5,112.5,42.8,111.4,42.1z"/>
		<path d="M134.5,60.6c0,1.4,0,2.6,0.1,3.6c0,1,0.1,1.9,0.1,2.7c0.1,0.8,0.1,1.4,0.2,1.9c0.1,0.5,0.2,1,0.2,1.3c0,0,0,0.1,0,0.1
			c-1.7-0.6-3.4-1.1-5.1-1.8c0,0,0-0.1,0-0.1c0.1-0.3,0.2-0.7,0.2-1.2c0.1-0.5,0.1-1.1,0.2-1.8c0-0.7,0.1-1.6,0.1-2.6
			c0-1,0.1-2.2,0.1-3.6c0-5.3,0-10.5,0-15.8c0-1.4,0-2.6-0.1-3.6c0-1-0.1-1.9-0.1-2.7c0-0.8-0.1-1.4-0.2-2c-0.1-0.5-0.2-1-0.2-1.4
			c0,0,0-0.1,0-0.1c0.3,0.2,0.6,0.3,0.9,0.5c0.3,0.1,0.6,0.3,0.9,0.4c0.3,0.1,0.7,0.3,1,0.4c0.6,0.2,1.3,0.4,2.2,0.6
			c0.9,0.2,2.2,0.6,3.6,1.1c1.4,0.5,2.7,1.1,3.8,1.8c1.2,0.8,2.2,1.7,3.1,2.7c0.9,1,1.6,2.2,2,3.4c0.5,1.3,0.7,2.6,0.7,4.1
			c0,1.1-0.1,2.2-0.4,3.1c-0.3,0.9-0.6,1.7-1.1,2.4c-0.5,0.7-1.1,1.2-1.8,1.7c-0.7,0.4-1.4,0.7-2.3,0.9c2.5,4.6,5.1,9.1,7.7,13.5
			c0.4,0.7,0.7,1.2,1.1,1.7c0.3,0.5,0.6,0.9,0.9,1.3c0.3,0.4,0.6,0.7,0.9,0.9c0.3,0.2,0.6,0.4,0.9,0.6c0,0,0,0.1,0,0.1
			c-2.1-0.3-4.2-0.7-6.3-1.2c0-0.3-0.2-0.7-0.4-1.3c-0.2-0.5-0.5-1.1-0.8-1.7c-2.6-4.5-5.1-9.2-7.7-14c-0.3-0.1-0.7-0.1-1-0.2
			c-0.3-0.1-0.7-0.2-1-0.3c-0.4-0.1-0.8-0.3-1.2-0.4c-0.4-0.2-0.8-0.4-1.2-0.6C134.5,57,134.5,58.8,134.5,60.6z M134.5,53.3
			c0.4,0.2,0.8,0.4,1.2,0.6c0.4,0.2,0.8,0.3,1.2,0.4c1.1,0.4,2.1,0.5,2.9,0.4c0.9-0.1,1.7-0.4,2.3-1c0.6-0.6,1.1-1.3,1.5-2.3
			c0.3-1,0.5-2.2,0.5-3.7c0-1.2-0.1-2.3-0.4-3.3c-0.2-1-0.6-2-1.1-2.8c-0.5-0.8-1.1-1.5-1.8-2.1c-0.7-0.6-1.6-1.1-2.6-1.4
			c-1-0.3-1.8-0.6-2.4-0.7c-0.6-0.1-1-0.1-1.3-0.1C134.5,42.7,134.5,48,134.5,53.3z"/>
		<path d="M174.1,43c2.5,0.1,4.8,0.5,6.9,1.3c2.1,0.8,3.9,1.9,5.4,3.3c1.5,1.4,2.7,3.1,3.6,5c0.9,2,1.3,4.2,1.3,6.7
			c0,1.4-0.2,2.8-0.5,4.2c-0.3,1.4-0.8,2.8-1.4,4.1c-0.6,1.3-1.4,2.5-2.3,3.7c-0.9,1.1-2,2.1-3.1,3c-1.2,0.9-2.5,1.5-3.9,2
			c-1.4,0.5-3,0.8-4.6,0.8c-2.5,0-4.8-0.4-6.9-1.3c-2.1-0.9-3.9-2.2-5.4-3.9c-1.5-1.7-2.7-3.6-3.6-5.9c-0.9-2.3-1.3-4.7-1.3-7.3
			c0-1.5,0.2-2.9,0.5-4.3c0.3-1.4,0.8-2.7,1.4-3.9c0.6-1.2,1.4-2.3,2.3-3.2c0.9-1,2-1.8,3.1-2.4s2.5-1.2,3.9-1.5
			C170.9,43,172.5,42.9,174.1,43z M175.4,75c1.6,0,3.2-0.4,4.5-1c1.4-0.7,2.5-1.6,3.5-2.8c1-1.2,1.8-2.7,2.3-4.4
			c0.5-1.7,0.8-3.6,0.8-5.7c0-2.3-0.3-4.4-0.8-6.4c-0.5-1.9-1.3-3.6-2.3-5c-1-1.4-2.3-2.5-3.9-3.3c-1.6-0.8-3.4-1.3-5.4-1.3
			c-1.6-0.1-3.2,0.1-4.5,0.7c-1.4,0.5-2.5,1.3-3.5,2.3c-1,1.1-1.8,2.4-2.3,4c-0.5,1.6-0.8,3.5-0.8,5.7c0,2.4,0.3,4.6,0.8,6.7
			c0.5,2.1,1.3,3.9,2.3,5.5c1,1.6,2.3,2.8,3.9,3.7C171.5,74.6,173.3,75.1,175.4,75z"/>
		<path d="M205.1,40.9c1.8-0.4,3.4-0.8,4.9-1.2c1.5-0.4,2.8-0.8,3.8-1.1c1-0.3,1.8-0.6,2.1-0.8c-0.3,1.1-0.7,2.1-1.1,3.2
			c-0.5,0-1,0.1-1.7,0.1c-0.5,0.1-1.2,0.2-2,0.3c-0.8,0.1-1.7,0.3-2.7,0.6c-0.3,0.1-0.8,0.2-1.3,0.3c-0.5,0.1-1,0.3-1.4,0.4
			c-0.5,0.1-1.1,0.3-1.6,0.4c0,4,0,8,0,12c1.5-0.3,2.9-0.7,4.1-1.1c1.2-0.4,2.2-0.7,3.1-1c1-0.4,1.8-0.7,2.6-1.1
			c-0.2,1.1-0.4,2.2-0.7,3.4c-1,0.2-2,0.3-3,0.5c-0.9,0.1-1.9,0.3-2.9,0.5c-1.1,0.2-2.1,0.4-3.1,0.6c0,4.6,0,9.2,0,13.8
			c1.7-0.4,3.3-0.9,4.7-1.5c1.4-0.6,2.7-1.1,3.7-1.6c1.2-0.6,2.4-1.2,3.4-1.8c-0.2,1.2-0.4,2.5-0.6,3.7c-0.2,0-0.4,0.1-0.8,0.2
			c-0.3,0.1-0.7,0.2-1.2,0.3c-0.4,0.1-0.9,0.3-1.3,0.4c-0.5,0.1-0.9,0.3-1.3,0.4c-0.4,0.1-0.8,0.2-1.1,0.3c-0.3,0.1-0.6,0.2-0.7,0.2
			c-3.1,0.9-6.3,1.7-9.4,2.3c0,0,0-0.1,0-0.1c0.1-0.3,0.2-0.7,0.3-1.2c0.1-0.5,0.1-1.1,0.2-1.7c0.1-0.7,0.1-1.5,0.1-2.5
			c0-0.9,0-2,0-3.3c0-4.8,0-9.6,0-14.4c0-1.3,0-2.3,0-3.3c0-0.9-0.1-1.7-0.1-2.4c-0.1-0.7-0.1-1.2-0.2-1.7c-0.1-0.4-0.2-0.8-0.3-1.1
			c0,0,0-0.1,0-0.1C201.5,41.7,203.3,41.3,205.1,40.9z"/>
		<path d="M225.8,34.7c7.2,4.9,14.2,8.9,20.8,12c0-4.8,0-9.7,0-14.5c0-1.2,0-2.2,0-3c0-0.9-0.1-1.6-0.1-2.2
			c-0.1-0.6-0.1-1.1-0.2-1.5c-0.1-0.4-0.1-0.7-0.2-0.9c0,0,0-0.1,0-0.1c1.2-0.7,2.3-1.5,3.4-2.2c0,0,0,0.1,0,0.1
			c-0.1,0.3-0.1,0.7-0.2,1.2c-0.1,0.5-0.1,1-0.2,1.7c-0.1,0.7-0.1,1.5-0.1,2.3c0,0.9,0,1.9,0,3.1c0,7.3,0,14.6,0,21.9
			c-0.2,0.2-0.4,0.3-0.7,0.5c-6.6-2.8-13.5-6.6-20.7-11.3c0,4.9,0,9.7,0,14.6c0,1.2,0,2.3,0,3.1c0,0.9,0.1,1.6,0.1,2.3
			c0.1,0.6,0.1,1.1,0.2,1.6c0.1,0.4,0.1,0.7,0.2,1c0,0,0,0.1,0,0.1c-1.2,0.6-2.5,1.1-3.7,1.7c0,0,0-0.1,0-0.1
			c0.1-0.3,0.2-0.7,0.2-1.2c0.1-0.5,0.1-1.1,0.2-1.7c0.1-0.7,0.1-1.5,0.1-2.4c0-0.9,0-2,0-3.2c0-4.6,0-9.3,0-13.9c0-1.2,0-2.3,0-3.2
			c0-0.9-0.1-1.7-0.1-2.3c-0.1-0.6-0.1-1.2-0.2-1.6c-0.1-0.4-0.2-0.8-0.2-1c0,0,0-0.1,0-0.1C224.9,35.1,225.4,34.9,225.8,34.7z"/>
	</g>
</g>
<g>
	<path d="M95.9,177.8c-2.4-1.1-4.8-2.3-7.1-3.4c0-55.9,0.1-111.8,0.1-167.7h7.1V177.8z"/>
</g>
<g>
	<path d="M95.9,177.8c2-1.1,3.9-2.3,5.9-3.4c0-55.9,0-111.8-0.1-167.7h-5.8V177.8z"/>
</g>
<polygon points="88.8,7 95.9,2 101.8,7 "/>
<path d="M98.7,60.2c0,0,0,0.1,0,0.1c0,0.1,0,0.1,0,0.2c0,0.1,0,0.1,0,0.2c0,0.2,0,0.5-0.1,0.7C66.2,44.2,49.2,13.2,49.3,13
	C49.4,12.9,66.9,43.2,98.7,60.2z"/>
</svg>
