<?xml version="1.0" encoding="utf-8"?>
<!-- Generator: Adobe Illustrator 26.3.1, SVG Export Plug-In . SVG Version: 6.00 Build 0)  -->
<svg version="1.1" id="Layer_1" xmlns="http://www.w3.org/2000/svg" xmlns:xlink="http://www.w3.org/1999/xlink" x="0px" y="0px"
	 viewBox="0 0 25.6 28.8" style="enable-background:new 0 0 25.6 28.8;" xml:space="preserve">
<g id="icomoon-ignore">
</g>
<path d="M20.2,28.8c-2.4,0-8.3-3.1-13.3-9.8C2.3,12.8,0,8.3,0,5.2c0-2.4,1.7-3.5,2.5-4.1l0.2-0.2C3.7,0.2,5.3,0,5.8,0
	c1,0,1.5,0.6,1.7,1.1C7.8,1.6,9.6,5.5,9.8,6c0.3,0.8,0.2,1.9-0.7,2.5L9,8.6c-0.4,0.3-1.3,0.9-1.4,1.6c-0.1,0.3,0.1,0.7,0.3,1.1
	c1.4,1.9,6,7.5,6.8,8.3c0.6,0.6,1.5,0.7,2,0.2c0.6-0.5,0.8-0.8,0.8-0.8l0.1-0.1c0,0,0.5-0.4,1.2-0.4c0.5,0,1.1,0.2,1.6,0.5
	c1.4,0.9,4.5,3,4.5,3l0,0c0.4,0.3,1,1.3,0.3,2.6C24.6,26,22.4,28.8,20.2,28.8L20.2,28.8z M5.8,1.1c-0.5,0-1.7,0.2-2.5,0.7L3.1,2
	C2.3,2.5,1.1,3.4,1.1,5.2c0,2.8,2.2,7.1,6.7,13.1c4.9,6.6,10.5,9.4,12.4,9.4c1.6,0,3.5-2.3,4.1-3.5c0.4-0.7,0.1-1.2,0-1.3
	c-0.4-0.2-3.2-2.1-4.5-3c-0.4-0.2-0.7-0.4-1-0.4c-0.3,0-0.5,0.1-0.5,0.1c-0.1,0.1-0.4,0.4-0.9,0.8c-1,0.8-2.4,0.7-3.4-0.3
	c-0.9-0.9-5.6-6.7-6.9-8.5c-0.5-0.6-0.6-1.3-0.5-1.9c0.2-1.1,1.2-1.9,1.8-2.3l0.1-0.1c0.5-0.4,0.4-1,0.3-1.2C8.6,6,6.8,2.1,6.6,1.6
	C6.4,1.2,6.3,1.1,5.8,1.1L5.8,1.1z"/>
</svg>
