<?xml version="1.0" encoding="utf-8"?>
<!-- Generator: Adobe Illustrator 26.3.1, SVG Export Plug-In . SVG Version: 6.00 Build 0)  -->
<svg version="1.1" id="Layer_1" xmlns="http://www.w3.org/2000/svg" xmlns:xlink="http://www.w3.org/1999/xlink" x="0px" y="0px"
	 viewBox="0 0 19.8 25.8" style="enable-background:new 0 0 19.8 25.8;" xml:space="preserve">
<style type="text/css">
	.st0{stroke:#000000;stroke-width:0.25;stroke-miterlimit:10;}
</style>
<path class="st0" d="M5.3,0.3L4.2,0.6C2.1,1.2,0.5,3,0.2,5.2c-0.5,3.3,0.6,7.2,3.1,11.6c2.6,4.4,5.4,7.3,8.5,8.5
	c2,0.8,4.4,0.4,5.9-1.1l0.9-0.8c1.2-1.1,1.3-2.9,0.4-4.2l-2.2-3c-0.6-0.8-1.7-1.2-2.6-0.9l-3.3,1l-0.1,0c-0.4,0.1-1.2-0.7-2.2-2.5
	c-1.1-1.9-1.3-3-1-3.3l1.7-1.6c1.3-1.2,1.6-3,0.9-4.6L9.2,2C8.5,0.5,6.8-0.2,5.3,0.3L5.3,0.3z M7.7,2.7L8.7,5c0.4,0.9,0.2,2-0.6,2.7
	L6.5,9.3c-1.1,1-0.7,2.7,0.7,5.2c1.4,2.3,2.6,3.5,3.9,3.3l0.2,0l3.3-1c0.3-0.1,0.7,0,0.9,0.3l2.2,3c0.5,0.7,0.4,1.5-0.2,2.1L16.7,23
	c-1.1,1.1-2.8,1.4-4.2,0.8c-2.7-1.1-5.3-3.7-7.7-7.8c-2.4-4.2-3.4-7.7-3-10.6C2,3.9,3.1,2.6,4.6,2.1l1.1-0.3
	C6.5,1.6,7.4,1.9,7.7,2.7L7.7,2.7z"/>
</svg>
