<?xml version="1.0" encoding="utf-8"?>
<!-- Generator: Adobe Illustrator 26.3.1, SVG Export Plug-In . SVG Version: 6.00 Build 0)  -->
<svg version="1.1" id="Layer_1" xmlns="http://www.w3.org/2000/svg" xmlns:xlink="http://www.w3.org/1999/xlink" x="0px" y="0px"
	 viewBox="0 0 64 48" style="enable-background:new 0 0 64 48;" xml:space="preserve">
<path id="Mail" d="M58,0H6C2.7,0,0,2.7,0,6v36c0,3.3,2.7,6,6,6h52c3.3,0,6-2.7,6-6V6C64,2.7,61.3,0,58,0z M62,41.1L43.1,22.2
	L62,10.1V41.1z M6,2h52c2.2,0,4,1.8,4,4v1.8L34.5,25.3c-1.5,0.9-3.4,0.9-4.8-0.1L2,6.5V6C2,3.8,3.8,2,6,2z M2,8.9l19.2,13L2,41.1
	V8.9z M58,46H6c-1.6,0-3.1-1-3.7-2.4l20.5-20.5l5.7,3.8c1.1,0.7,2.3,1.1,3.6,1.1c1.2,0,2.4-0.3,3.4-1l5.8-3.7l20.3,20.3
	C61.1,45,59.7,46,58,46z"/>
</svg>
