<?xml version="1.0" encoding="utf-8"?>
<!-- Generator: Adobe Illustrator 26.3.1, SVG Export Plug-In . SVG Version: 6.00 Build 0)  -->
<svg version="1.1" id="Layer_1" xmlns="http://www.w3.org/2000/svg" xmlns:xlink="http://www.w3.org/1999/xlink" x="0px" y="0px"
	 viewBox="0 0 25 25" style="enable-background:new 0 0 25 25;" xml:space="preserve">
<path d="M25,12.5C25,5.6,19.4,0,12.5,0S0,5.6,0,12.5S5.6,25,12.5,25C19.4,25,25,19.4,25,12.5z M13,24v-9h3.5c0.3,0,0.5-0.2,0.5-0.5
	S16.8,14,16.5,14H13v-3.5C13,9.1,14.1,8,15.5,8h2C17.8,8,18,7.8,18,7.5S17.8,7,17.5,7h-2C13.6,7,12,8.6,12,10.5V14H8.5
	C8.2,14,8,14.2,8,14.5S8.2,15,8.5,15H12v9C5.7,23.7,0.7,18.3,1,12C1.3,5.7,6.7,0.7,13,1c6.3,0.3,11.3,5.6,11,12
	C23.7,19,19,23.7,13,24z"/>
</svg>
