<?xml version="1.0" encoding="utf-8"?>
<!-- Generator: Adobe Illustrator 26.3.1, SVG Export Plug-In . SVG Version: 6.00 Build 0)  -->
<svg version="1.1" id="Layer_1" xmlns="http://www.w3.org/2000/svg" xmlns:xlink="http://www.w3.org/1999/xlink" x="0px" y="0px"
	 viewBox="0 0 24 24" style="enable-background:new 0 0 24 24;" xml:space="preserve">
<path d="M12,6.5C9,6.5,6.5,9,6.5,12S9,17.5,12,17.5s5.5-2.5,5.5-5.5S15,6.5,12,6.5z M12,16.5c-2.5,0-4.5-2-4.5-4.5s2-4.5,4.5-4.5
	s4.5,2,4.5,4.5S14.5,16.5,12,16.5z M17.5,0h-11C2.9,0,0,2.9,0,6.5v11C0,21.1,2.9,24,6.5,24h11c3.6,0,6.5-2.9,6.5-6.5v-11
	C24,2.9,21.1,0,17.5,0z M23,17.5c0,3-2.5,5.5-5.5,5.5h-11c-3,0-5.5-2.5-5.5-5.5v-11C1,3.5,3.5,1,6.5,1h11c3,0,5.5,2.5,5.5,5.5V17.5z
	 M19.5,5.5c0,0.6-0.4,1-1,1s-1-0.4-1-1s0.4-1,1-1S19.5,4.9,19.5,5.5z"/>
</svg>
