<?xml version="1.0" encoding="utf-8"?>
<!-- Generator: Adobe Illustrator 26.3.1, SVG Export Plug-In . SVG Version: 6.00 Build 0)  -->
<svg version="1.1" id="Layer_1" xmlns="http://www.w3.org/2000/svg" xmlns:xlink="http://www.w3.org/1999/xlink" x="0px" y="0px"
	 viewBox="0 0 24 24" style="enable-background:new 0 0 24 24;" xml:space="preserve">
<path d="M8,6c0,0.6-0.4,1-1,1S6,6.6,6,6s0.4-1,1-1S8,5.4,8,6z M7,9.5c-0.3,0-0.5,0.2-0.5,0.5v8c0,0.3,0.2,0.5,0.5,0.5
	s0.5-0.2,0.5-0.5v-8C7.5,9.7,7.3,9.5,7,9.5z M14.5,9.5c-1.2,0-2.2,0.5-3,1.4V10c0-0.3-0.2-0.5-0.5-0.5s-0.5,0.2-0.5,0.5v8
	c0,0.3,0.2,0.5,0.5,0.5s0.5-0.2,0.5-0.5v-4.5c0-1.7,1.3-3,3-3s3,1.3,3,3V18c0,0.3,0.2,0.5,0.5,0.5s0.5-0.2,0.5-0.5v-4.5
	C18.5,11.3,16.7,9.5,14.5,9.5z M24,1.5v21c0,0.8-0.7,1.5-1.5,1.5h-21C0.7,24,0,23.3,0,22.5v-21C0,0.7,0.7,0,1.5,0h21
	C23.3,0,24,0.7,24,1.5z M23,1.5C23,1.2,22.8,1,22.5,1h-21C1.2,1,1,1.2,1,1.5v21C1,22.8,1.2,23,1.5,23h21c0.3,0,0.5-0.2,0.5-0.5V1.5z
	"/>
</svg>
